<mxfile host="app.diagrams.net" modified="2023-12-01T15:21:05.654Z" agent="Mozilla/5.0 (X11; Ubuntu; Linux x86_64; rv:109.0) Gecko/20100101 Firefox/111.0" etag="IVNHwasx6fnwdh8AdP39" version="22.1.5" type="device">
  <diagram name="Page-1" id="hfEIHPZu9skdpidVNGpL">
    <mxGraphModel dx="2764" dy="2171" grid="1" gridSize="10" guides="1" tooltips="1" connect="1" arrows="1" fold="1" page="1" pageScale="1" pageWidth="850" pageHeight="1100" math="0" shadow="0">
      <root>
        <mxCell id="0" />
        <mxCell id="1" parent="0" />
        <mxCell id="XvGXWfgPDiuJexI5HVNR-10" value="&lt;font style=&quot;font-size: 18px;&quot;&gt;Marmalade NG ledger&lt;/font&gt;" style="swimlane;whiteSpace=wrap;html=1;startSize=40;" parent="1" vertex="1">
          <mxGeometry x="-440" y="220" width="240" height="600" as="geometry" />
        </mxCell>
        <mxCell id="XvGXWfgPDiuJexI5HVNR-21" value="" style="shape=cube;whiteSpace=wrap;html=1;boundedLbl=1;backgroundOutline=1;darkOpacity=0.05;darkOpacity2=0.1;" parent="XvGXWfgPDiuJexI5HVNR-10" vertex="1">
          <mxGeometry x="120" y="155" width="90" height="50" as="geometry" />
        </mxCell>
        <mxCell id="XvGXWfgPDiuJexI5HVNR-11" value="&lt;font style=&quot;font-size: 18px;&quot;&gt;Marmalade NG ledger&lt;/font&gt;" style="swimlane;whiteSpace=wrap;html=1;startSize=40;" parent="1" vertex="1">
          <mxGeometry x="800" y="320" width="240" height="360" as="geometry" />
        </mxCell>
        <mxCell id="XvGXWfgPDiuJexI5HVNR-22" value="" style="shape=cube;whiteSpace=wrap;html=1;boundedLbl=1;backgroundOutline=1;darkOpacity=0.05;darkOpacity2=0.1;" parent="XvGXWfgPDiuJexI5HVNR-11" vertex="1">
          <mxGeometry x="50" y="155" width="90" height="50" as="geometry" />
        </mxCell>
        <mxCell id="XvGXWfgPDiuJexI5HVNR-12" value="&lt;font style=&quot;font-size: 18px;&quot;&gt;Marmalade NG ledger&lt;/font&gt;" style="swimlane;whiteSpace=wrap;html=1;startSize=40;" parent="1" vertex="1">
          <mxGeometry x="-440" y="960" width="240" height="360" as="geometry" />
        </mxCell>
        <mxCell id="XvGXWfgPDiuJexI5HVNR-14" value="&lt;font style=&quot;font-size: 18px;&quot;&gt;Marmalade V1 ledger&lt;/font&gt;" style="swimlane;whiteSpace=wrap;html=1;startSize=40;" parent="1" vertex="1">
          <mxGeometry x="210" y="-260" width="240" height="360" as="geometry" />
        </mxCell>
        <mxCell id="XvGXWfgPDiuJexI5HVNR-23" value="" style="shape=cube;whiteSpace=wrap;html=1;boundedLbl=1;backgroundOutline=1;darkOpacity=0.05;darkOpacity2=0.1;" parent="XvGXWfgPDiuJexI5HVNR-14" vertex="1">
          <mxGeometry x="60" y="290" width="90" height="50" as="geometry" />
        </mxCell>
        <mxCell id="XvGXWfgPDiuJexI5HVNR-15" value="&lt;font style=&quot;font-size: 18px;&quot;&gt;Other Ledger (Arkade)&lt;/font&gt;" style="swimlane;whiteSpace=wrap;html=1;startSize=40;" parent="1" vertex="1">
          <mxGeometry x="700" y="-260" width="240" height="360" as="geometry" />
        </mxCell>
        <mxCell id="XvGXWfgPDiuJexI5HVNR-24" value="" style="shape=cube;whiteSpace=wrap;html=1;boundedLbl=1;backgroundOutline=1;darkOpacity=0.05;darkOpacity2=0.1;" parent="XvGXWfgPDiuJexI5HVNR-15" vertex="1">
          <mxGeometry x="75" y="180" width="90" height="50" as="geometry" />
        </mxCell>
        <mxCell id="XvGXWfgPDiuJexI5HVNR-39" value="&lt;font style=&quot;font-size: 15px;&quot;&gt;Burn Hook&lt;/font&gt;" style="shape=document;whiteSpace=wrap;html=1;boundedLbl=1;" parent="XvGXWfgPDiuJexI5HVNR-15" vertex="1">
          <mxGeometry x="80" y="280" width="90" height="60" as="geometry" />
        </mxCell>
        <mxCell id="XvGXWfgPDiuJexI5HVNR-89" value="&lt;font style=&quot;font-size: 9px;&quot;&gt;Target Spec&lt;/font&gt;" style="shape=process;whiteSpace=wrap;html=1;backgroundOutline=1;" parent="XvGXWfgPDiuJexI5HVNR-15" vertex="1">
          <mxGeometry x="130" y="330" width="70" height="20" as="geometry" />
        </mxCell>
        <mxCell id="XvGXWfgPDiuJexI5HVNR-19" value="" style="ellipse;whiteSpace=wrap;html=1;aspect=fixed;" parent="1" vertex="1">
          <mxGeometry x="50" y="280" width="420" height="420" as="geometry" />
        </mxCell>
        <mxCell id="XvGXWfgPDiuJexI5HVNR-25" value="Inbound&lt;br&gt;Policy" style="swimlane;whiteSpace=wrap;html=1;startSize=40;" parent="1" vertex="1">
          <mxGeometry x="-160" y="260" width="70" height="120" as="geometry" />
        </mxCell>
        <mxCell id="XvGXWfgPDiuJexI5HVNR-26" value="OutBound&lt;br&gt;Policy" style="swimlane;whiteSpace=wrap;html=1;startSize=40;" parent="1" vertex="1">
          <mxGeometry x="-160" y="420" width="70" height="120" as="geometry" />
        </mxCell>
        <mxCell id="XvGXWfgPDiuJexI5HVNR-29" value="" style="endArrow=none;html=1;rounded=0;exitX=1.011;exitY=0.56;exitDx=0;exitDy=0;exitPerimeter=0;entryX=0;entryY=0.5;entryDx=0;entryDy=0;" parent="1" source="XvGXWfgPDiuJexI5HVNR-21" target="XvGXWfgPDiuJexI5HVNR-25" edge="1">
          <mxGeometry width="50" height="50" relative="1" as="geometry">
            <mxPoint x="400" y="450" as="sourcePoint" />
            <mxPoint x="450" y="400" as="targetPoint" />
          </mxGeometry>
        </mxCell>
        <mxCell id="XvGXWfgPDiuJexI5HVNR-30" value="" style="endArrow=none;html=1;rounded=0;exitX=0;exitY=0;exitDx=90;exitDy=35;exitPerimeter=0;entryX=0;entryY=0.5;entryDx=0;entryDy=0;" parent="1" source="XvGXWfgPDiuJexI5HVNR-21" target="XvGXWfgPDiuJexI5HVNR-26" edge="1">
          <mxGeometry width="50" height="50" relative="1" as="geometry">
            <mxPoint x="400" y="450" as="sourcePoint" />
            <mxPoint x="-190" y="500" as="targetPoint" />
          </mxGeometry>
        </mxCell>
        <mxCell id="XvGXWfgPDiuJexI5HVNR-31" value="Policy" style="swimlane;whiteSpace=wrap;html=1;" parent="1" vertex="1">
          <mxGeometry x="280" y="160" width="80" height="90" as="geometry" />
        </mxCell>
        <mxCell id="XvGXWfgPDiuJexI5HVNR-86" value="&lt;font style=&quot;font-size: 9px;&quot;&gt;Target Spec&lt;/font&gt;" style="shape=process;whiteSpace=wrap;html=1;backgroundOutline=1;" parent="XvGXWfgPDiuJexI5HVNR-31" vertex="1">
          <mxGeometry x="5" y="40" width="70" height="20" as="geometry" />
        </mxCell>
        <mxCell id="XvGXWfgPDiuJexI5HVNR-32" value="" style="endArrow=none;html=1;rounded=0;entryX=0.551;entryY=1.003;entryDx=0;entryDy=0;entryPerimeter=0;" parent="1" source="XvGXWfgPDiuJexI5HVNR-31" target="XvGXWfgPDiuJexI5HVNR-23" edge="1">
          <mxGeometry width="50" height="50" relative="1" as="geometry">
            <mxPoint x="400" y="250" as="sourcePoint" />
            <mxPoint x="350" y="120" as="targetPoint" />
          </mxGeometry>
        </mxCell>
        <mxCell id="XvGXWfgPDiuJexI5HVNR-35" value="Inbound&lt;br&gt;Policy" style="swimlane;whiteSpace=wrap;html=1;startSize=40;" parent="1" vertex="1">
          <mxGeometry x="690" y="360" width="70" height="120" as="geometry" />
        </mxCell>
        <mxCell id="XvGXWfgPDiuJexI5HVNR-36" value="OutBound" style="swimlane;whiteSpace=wrap;html=1;startSize=40;" parent="1" vertex="1">
          <mxGeometry x="690" y="520" width="70" height="120" as="geometry" />
        </mxCell>
        <mxCell id="XvGXWfgPDiuJexI5HVNR-37" value="" style="endArrow=none;html=1;rounded=0;exitX=-0.022;exitY=0.44;exitDx=0;exitDy=0;exitPerimeter=0;entryX=1;entryY=0.5;entryDx=0;entryDy=0;" parent="1" source="XvGXWfgPDiuJexI5HVNR-22" target="XvGXWfgPDiuJexI5HVNR-35" edge="1">
          <mxGeometry width="50" height="50" relative="1" as="geometry">
            <mxPoint x="400" y="400" as="sourcePoint" />
            <mxPoint x="450" y="350" as="targetPoint" />
          </mxGeometry>
        </mxCell>
        <mxCell id="XvGXWfgPDiuJexI5HVNR-38" value="" style="endArrow=none;html=1;rounded=0;entryX=0;entryY=0.48;entryDx=0;entryDy=0;entryPerimeter=0;exitX=1;exitY=0.5;exitDx=0;exitDy=0;" parent="1" source="XvGXWfgPDiuJexI5HVNR-36" target="XvGXWfgPDiuJexI5HVNR-22" edge="1">
          <mxGeometry width="50" height="50" relative="1" as="geometry">
            <mxPoint x="400" y="400" as="sourcePoint" />
            <mxPoint x="450" y="350" as="targetPoint" />
          </mxGeometry>
        </mxCell>
        <mxCell id="XvGXWfgPDiuJexI5HVNR-41" value="" style="endArrow=classic;html=1;exitX=0.5;exitY=1;exitDx=0;exitDy=0;curved=1;fillColor=#ffe6cc;strokeColor=#d79b00;strokeWidth=5;" parent="1" source="XvGXWfgPDiuJexI5HVNR-31" edge="1">
          <mxGeometry width="50" height="50" relative="1" as="geometry">
            <mxPoint x="-130" y="570" as="sourcePoint" />
            <mxPoint y="400" as="targetPoint" />
            <Array as="points">
              <mxPoint x="250" y="400" />
            </Array>
          </mxGeometry>
        </mxCell>
        <mxCell id="XvGXWfgPDiuJexI5HVNR-42" value="" style="endArrow=classic;html=1;rounded=0;entryX=1;entryY=0.5;entryDx=0;entryDy=0;" parent="1" target="XvGXWfgPDiuJexI5HVNR-25" edge="1">
          <mxGeometry width="50" height="50" relative="1" as="geometry">
            <mxPoint y="400" as="sourcePoint" />
            <mxPoint x="-80" y="420" as="targetPoint" />
          </mxGeometry>
        </mxCell>
        <mxCell id="XvGXWfgPDiuJexI5HVNR-43" value="" style="endArrow=classic;html=1;rounded=0;exitX=1;exitY=0.5;exitDx=0;exitDy=0;" parent="1" source="XvGXWfgPDiuJexI5HVNR-26" edge="1">
          <mxGeometry width="50" height="50" relative="1" as="geometry">
            <mxPoint x="-130" y="470" as="sourcePoint" />
            <mxPoint y="400" as="targetPoint" />
          </mxGeometry>
        </mxCell>
        <mxCell id="XvGXWfgPDiuJexI5HVNR-44" value="" style="endArrow=classic;html=1;exitX=0.425;exitY=0.936;exitDx=0;exitDy=0;exitPerimeter=0;curved=1;startArrow=none;startFill=0;fillColor=#e1d5e7;strokeColor=#9673a6;strokeWidth=5;" parent="1" source="XvGXWfgPDiuJexI5HVNR-39" edge="1">
          <mxGeometry width="50" height="50" relative="1" as="geometry">
            <mxPoint x="790" y="140" as="sourcePoint" />
            <mxPoint y="400" as="targetPoint" />
            <Array as="points">
              <mxPoint x="600" y="430" />
            </Array>
          </mxGeometry>
        </mxCell>
        <mxCell id="XvGXWfgPDiuJexI5HVNR-45" value="" style="endArrow=classic;html=1;rounded=0;exitX=0;exitY=0.5;exitDx=0;exitDy=0;" parent="1" source="XvGXWfgPDiuJexI5HVNR-36" edge="1">
          <mxGeometry width="50" height="50" relative="1" as="geometry">
            <mxPoint x="290" y="460" as="sourcePoint" />
            <mxPoint x="600" y="500" as="targetPoint" />
          </mxGeometry>
        </mxCell>
        <mxCell id="XvGXWfgPDiuJexI5HVNR-46" value="" style="endArrow=classic;html=1;rounded=0;entryX=0;entryY=0.5;entryDx=0;entryDy=0;" parent="1" target="XvGXWfgPDiuJexI5HVNR-35" edge="1">
          <mxGeometry width="50" height="50" relative="1" as="geometry">
            <mxPoint x="600" y="500" as="sourcePoint" />
            <mxPoint x="340" y="410" as="targetPoint" />
          </mxGeometry>
        </mxCell>
        <mxCell id="XvGXWfgPDiuJexI5HVNR-47" value="" style="endArrow=classic;startArrow=classic;html=1;curved=1;fillColor=#d5e8d4;strokeColor=#82b366;strokeWidth=5;" parent="1" edge="1">
          <mxGeometry width="50" height="50" relative="1" as="geometry">
            <mxPoint y="400" as="sourcePoint" />
            <mxPoint x="600" y="500" as="targetPoint" />
            <Array as="points">
              <mxPoint x="300" y="570" />
            </Array>
          </mxGeometry>
        </mxCell>
        <mxCell id="XvGXWfgPDiuJexI5HVNR-48" value="" style="shape=cube;whiteSpace=wrap;html=1;boundedLbl=1;backgroundOutline=1;darkOpacity=0.05;darkOpacity2=0.1;" parent="1" vertex="1">
          <mxGeometry x="-320" y="1135" width="90" height="50" as="geometry" />
        </mxCell>
        <mxCell id="XvGXWfgPDiuJexI5HVNR-49" value="Inbound&lt;br&gt;Policy" style="swimlane;whiteSpace=wrap;html=1;startSize=40;" parent="1" vertex="1">
          <mxGeometry x="-160" y="1020" width="70" height="120" as="geometry" />
        </mxCell>
        <mxCell id="XvGXWfgPDiuJexI5HVNR-50" value="OutBound&lt;br&gt;Policy" style="swimlane;whiteSpace=wrap;html=1;startSize=40;" parent="1" vertex="1">
          <mxGeometry x="-160" y="1180" width="70" height="120" as="geometry" />
        </mxCell>
        <mxCell id="XvGXWfgPDiuJexI5HVNR-51" value="" style="endArrow=none;html=1;rounded=0;exitX=1.011;exitY=0.56;exitDx=0;exitDy=0;exitPerimeter=0;entryX=0;entryY=0.5;entryDx=0;entryDy=0;" parent="1" source="XvGXWfgPDiuJexI5HVNR-48" target="XvGXWfgPDiuJexI5HVNR-49" edge="1">
          <mxGeometry width="50" height="50" relative="1" as="geometry">
            <mxPoint x="400" y="1210" as="sourcePoint" />
            <mxPoint x="450" y="1160" as="targetPoint" />
          </mxGeometry>
        </mxCell>
        <mxCell id="XvGXWfgPDiuJexI5HVNR-52" value="" style="endArrow=none;html=1;rounded=0;exitX=0;exitY=0;exitDx=90;exitDy=35;exitPerimeter=0;entryX=0;entryY=0.5;entryDx=0;entryDy=0;" parent="1" source="XvGXWfgPDiuJexI5HVNR-48" target="XvGXWfgPDiuJexI5HVNR-50" edge="1">
          <mxGeometry width="50" height="50" relative="1" as="geometry">
            <mxPoint x="400" y="1210" as="sourcePoint" />
            <mxPoint x="-190" y="1260" as="targetPoint" />
          </mxGeometry>
        </mxCell>
        <mxCell id="XvGXWfgPDiuJexI5HVNR-53" value="" style="endArrow=classic;html=1;rounded=0;entryX=1;entryY=0.5;entryDx=0;entryDy=0;" parent="1" target="XvGXWfgPDiuJexI5HVNR-49" edge="1">
          <mxGeometry width="50" height="50" relative="1" as="geometry">
            <mxPoint y="1160" as="sourcePoint" />
            <mxPoint x="-80" y="1180" as="targetPoint" />
          </mxGeometry>
        </mxCell>
        <mxCell id="XvGXWfgPDiuJexI5HVNR-54" value="" style="endArrow=classic;html=1;rounded=0;exitX=1;exitY=0.5;exitDx=0;exitDy=0;" parent="1" source="XvGXWfgPDiuJexI5HVNR-50" edge="1">
          <mxGeometry width="50" height="50" relative="1" as="geometry">
            <mxPoint x="-130" y="1230" as="sourcePoint" />
            <mxPoint y="1160" as="targetPoint" />
          </mxGeometry>
        </mxCell>
        <mxCell id="XvGXWfgPDiuJexI5HVNR-64" value="" style="shape=cube;whiteSpace=wrap;html=1;boundedLbl=1;backgroundOutline=1;darkOpacity=0.05;darkOpacity2=0.1;" parent="1" vertex="1">
          <mxGeometry x="-320" y="675" width="90" height="50" as="geometry" />
        </mxCell>
        <mxCell id="XvGXWfgPDiuJexI5HVNR-65" value="Inbound&lt;br&gt;Policy" style="swimlane;whiteSpace=wrap;html=1;startSize=40;" parent="1" vertex="1">
          <mxGeometry x="-160" y="560" width="70" height="120" as="geometry" />
        </mxCell>
        <mxCell id="XvGXWfgPDiuJexI5HVNR-66" value="OutBound&lt;br&gt;Policy" style="swimlane;whiteSpace=wrap;html=1;startSize=40;" parent="1" vertex="1">
          <mxGeometry x="-160" y="720" width="70" height="120" as="geometry" />
        </mxCell>
        <mxCell id="XvGXWfgPDiuJexI5HVNR-67" value="" style="endArrow=none;html=1;rounded=0;exitX=1.011;exitY=0.56;exitDx=0;exitDy=0;exitPerimeter=0;entryX=0;entryY=0.5;entryDx=0;entryDy=0;" parent="1" source="XvGXWfgPDiuJexI5HVNR-64" target="XvGXWfgPDiuJexI5HVNR-65" edge="1">
          <mxGeometry width="50" height="50" relative="1" as="geometry">
            <mxPoint x="400" y="750" as="sourcePoint" />
            <mxPoint x="450" y="700" as="targetPoint" />
          </mxGeometry>
        </mxCell>
        <mxCell id="XvGXWfgPDiuJexI5HVNR-68" value="" style="endArrow=none;html=1;rounded=0;exitX=0;exitY=0;exitDx=90;exitDy=35;exitPerimeter=0;entryX=0;entryY=0.5;entryDx=0;entryDy=0;" parent="1" source="XvGXWfgPDiuJexI5HVNR-64" target="XvGXWfgPDiuJexI5HVNR-66" edge="1">
          <mxGeometry width="50" height="50" relative="1" as="geometry">
            <mxPoint x="400" y="750" as="sourcePoint" />
            <mxPoint x="-190" y="800" as="targetPoint" />
          </mxGeometry>
        </mxCell>
        <mxCell id="XvGXWfgPDiuJexI5HVNR-69" value="" style="endArrow=classic;html=1;rounded=0;entryX=1;entryY=0.5;entryDx=0;entryDy=0;" parent="1" target="XvGXWfgPDiuJexI5HVNR-65" edge="1">
          <mxGeometry width="50" height="50" relative="1" as="geometry">
            <mxPoint y="700" as="sourcePoint" />
            <mxPoint x="-80" y="720" as="targetPoint" />
          </mxGeometry>
        </mxCell>
        <mxCell id="XvGXWfgPDiuJexI5HVNR-70" value="" style="endArrow=classic;html=1;rounded=0;exitX=1;exitY=0.5;exitDx=0;exitDy=0;" parent="1" source="XvGXWfgPDiuJexI5HVNR-66" edge="1">
          <mxGeometry width="50" height="50" relative="1" as="geometry">
            <mxPoint x="-130" y="770" as="sourcePoint" />
            <mxPoint y="700" as="targetPoint" />
          </mxGeometry>
        </mxCell>
        <mxCell id="XvGXWfgPDiuJexI5HVNR-72" value="" style="ellipse;whiteSpace=wrap;html=1;aspect=fixed;" parent="1" vertex="1">
          <mxGeometry x="50" y="950" width="420" height="420" as="geometry" />
        </mxCell>
        <mxCell id="XvGXWfgPDiuJexI5HVNR-71" value="" style="endArrow=classic;startArrow=classic;html=1;curved=1;fillColor=#dae8fc;strokeColor=#6c8ebf;strokeWidth=5;" parent="1" edge="1">
          <mxGeometry width="50" height="50" relative="1" as="geometry">
            <mxPoint y="700" as="sourcePoint" />
            <mxPoint y="400" as="targetPoint" />
            <Array as="points">
              <mxPoint x="310" y="580" />
            </Array>
          </mxGeometry>
        </mxCell>
        <mxCell id="XvGXWfgPDiuJexI5HVNR-55" value="" style="endArrow=classic;startArrow=classic;html=1;curved=1;fillColor=#f8cecc;strokeColor=#b85450;strokeWidth=5;" parent="1" edge="1">
          <mxGeometry width="50" height="50" relative="1" as="geometry">
            <mxPoint y="1160" as="sourcePoint" />
            <mxPoint y="400" as="targetPoint" />
            <Array as="points">
              <mxPoint x="320" y="1180" />
              <mxPoint x="330" y="800" />
              <mxPoint x="300" y="570" />
            </Array>
          </mxGeometry>
        </mxCell>
        <mxCell id="XvGXWfgPDiuJexI5HVNR-73" value="" style="endArrow=none;dashed=1;html=1;dashPattern=1 3;strokeWidth=2;rounded=0;" parent="1" edge="1">
          <mxGeometry width="50" height="50" relative="1" as="geometry">
            <mxPoint x="-680" y="880" as="sourcePoint" />
            <mxPoint x="1240" y="880" as="targetPoint" />
          </mxGeometry>
        </mxCell>
        <mxCell id="XvGXWfgPDiuJexI5HVNR-74" value="&lt;font style=&quot;font-size: 16px;&quot;&gt;Chain X&lt;/font&gt;" style="text;html=1;strokeColor=none;fillColor=none;align=center;verticalAlign=middle;whiteSpace=wrap;rounded=0;" parent="1" vertex="1">
          <mxGeometry x="-650" y="830" width="60" height="30" as="geometry" />
        </mxCell>
        <mxCell id="XvGXWfgPDiuJexI5HVNR-76" value="&lt;font style=&quot;font-size: 16px;&quot;&gt;Chain Y&lt;/font&gt;" style="text;html=1;strokeColor=none;fillColor=none;align=center;verticalAlign=middle;whiteSpace=wrap;rounded=0;" parent="1" vertex="1">
          <mxGeometry x="-650" y="900" width="60" height="30" as="geometry" />
        </mxCell>
        <mxCell id="XvGXWfgPDiuJexI5HVNR-77" value="&lt;font style=&quot;font-size: 18px;&quot;&gt;Bridge&lt;/font&gt;" style="text;html=1;strokeColor=none;fillColor=none;align=center;verticalAlign=middle;whiteSpace=wrap;rounded=0;" parent="1" vertex="1">
          <mxGeometry x="340" y="620" width="60" height="30" as="geometry" />
        </mxCell>
        <mxCell id="XvGXWfgPDiuJexI5HVNR-78" value="&lt;font style=&quot;font-size: 18px;&quot;&gt;Bridge&lt;/font&gt;" style="text;html=1;strokeColor=none;fillColor=none;align=center;verticalAlign=middle;whiteSpace=wrap;rounded=0;" parent="1" vertex="1">
          <mxGeometry x="340" y="1280" width="60" height="30" as="geometry" />
        </mxCell>
        <mxCell id="XvGXWfgPDiuJexI5HVNR-79" value="&lt;font style=&quot;font-size: 14px;&quot;&gt;X-chain SPV&lt;/font&gt;" style="shape=flexArrow;endArrow=classic;startArrow=classic;html=1;rounded=0;entryX=0.5;entryY=1;entryDx=0;entryDy=0;exitX=0.5;exitY=0;exitDx=0;exitDy=0;dashed=1;dashPattern=12 12;" parent="1" source="XvGXWfgPDiuJexI5HVNR-72" target="XvGXWfgPDiuJexI5HVNR-19" edge="1">
          <mxGeometry width="100" height="100" relative="1" as="geometry">
            <mxPoint x="10" y="930" as="sourcePoint" />
            <mxPoint x="110" y="830" as="targetPoint" />
          </mxGeometry>
        </mxCell>
        <mxCell id="XvGXWfgPDiuJexI5HVNR-80" value="&lt;font style=&quot;font-size: 9px;&quot;&gt;Target Spec&lt;/font&gt;" style="shape=process;whiteSpace=wrap;html=1;backgroundOutline=1;" parent="1" vertex="1">
          <mxGeometry x="-90" y="600" width="70" height="20" as="geometry" />
        </mxCell>
        <mxCell id="XvGXWfgPDiuJexI5HVNR-81" value="&lt;font style=&quot;font-size: 9px;&quot;&gt;Target Spec&lt;/font&gt;" style="shape=process;whiteSpace=wrap;html=1;backgroundOutline=1;" parent="1" vertex="1">
          <mxGeometry x="-90" y="780" width="70" height="20" as="geometry" />
        </mxCell>
        <mxCell id="XvGXWfgPDiuJexI5HVNR-82" value="&lt;font style=&quot;font-size: 9px;&quot;&gt;Target Spec&lt;/font&gt;" style="shape=process;whiteSpace=wrap;html=1;backgroundOutline=1;" parent="1" vertex="1">
          <mxGeometry x="-90" y="480" width="70" height="20" as="geometry" />
        </mxCell>
        <mxCell id="XvGXWfgPDiuJexI5HVNR-83" value="&lt;font style=&quot;font-size: 9px;&quot;&gt;Target Spec&lt;/font&gt;" style="shape=process;whiteSpace=wrap;html=1;backgroundOutline=1;" parent="1" vertex="1">
          <mxGeometry x="-90" y="300" width="70" height="20" as="geometry" />
        </mxCell>
        <mxCell id="XvGXWfgPDiuJexI5HVNR-84" value="&lt;font style=&quot;font-size: 9px;&quot;&gt;Target Spec&lt;/font&gt;" style="shape=process;whiteSpace=wrap;html=1;backgroundOutline=1;" parent="1" vertex="1">
          <mxGeometry x="-90" y="1060" width="70" height="20" as="geometry" />
        </mxCell>
        <mxCell id="XvGXWfgPDiuJexI5HVNR-85" value="&lt;font style=&quot;font-size: 9px;&quot;&gt;Target Spec&lt;/font&gt;" style="shape=process;whiteSpace=wrap;html=1;backgroundOutline=1;" parent="1" vertex="1">
          <mxGeometry x="-90" y="1240" width="70" height="20" as="geometry" />
        </mxCell>
        <mxCell id="XvGXWfgPDiuJexI5HVNR-87" value="&lt;font style=&quot;font-size: 9px;&quot;&gt;Target Spec&lt;/font&gt;" style="shape=process;whiteSpace=wrap;html=1;backgroundOutline=1;" parent="1" vertex="1">
          <mxGeometry x="620" y="400" width="70" height="20" as="geometry" />
        </mxCell>
        <mxCell id="XvGXWfgPDiuJexI5HVNR-88" value="&lt;font style=&quot;font-size: 9px;&quot;&gt;Target Spec&lt;/font&gt;" style="shape=process;whiteSpace=wrap;html=1;backgroundOutline=1;" parent="1" vertex="1">
          <mxGeometry x="620" y="580" width="70" height="20" as="geometry" />
        </mxCell>
      </root>
    </mxGraphModel>
  </diagram>
</mxfile>
